<svg width="24" height="24" viewBox="0 0 24 24" fill="none" xmlns="http://www.w3.org/2000/svg">
<path fill-rule="evenodd" clip-rule="evenodd" d="M12 4C12.2652 4 12.5196 4.10536 12.7071 4.29289L18.7071 10.2929C19.0976 10.6834 19.0976 11.3166 18.7071 11.7071C18.3166 12.0976 17.6834 12.0976 17.2929 11.7071L13 7.41421L13 19C13 19.5523 12.5523 20 12 20C11.4477 20 11 19.5523 11 19L11 7.41421L6.70711 11.7071C6.31658 12.0976 5.68342 12.0976 5.29289 11.7071C4.90237 11.3166 4.90237 10.6834 5.29289 10.2929L11.2929 4.29289C11.4804 4.10536 11.7348 4 12 4Z" fill="#282828"/>
</svg>
