<svg width="24" height="24" viewBox="0 0 24 24" fill="none" xmlns="http://www.w3.org/2000/svg">
<path fill-rule="evenodd" clip-rule="evenodd" d="M19.4628 5.57572C18.7755 4.82596 17.5344 4.77976 16.7071 5.60711L8.60706 13.7071C8.39758 13.9166 8.39758 14.1834 8.60706 14.3929C8.81653 14.6024 9.08337 14.6024 9.29284 14.3929L15.9928 7.69289C16.3834 7.30237 17.0165 7.30237 17.4071 7.69289C17.7976 8.08342 17.7976 8.71658 17.4071 9.10711L10.7071 15.8071C9.71653 16.7976 8.18337 16.7976 7.19284 15.8071C6.20232 14.8166 6.20232 13.2834 7.19284 12.2929L15.2928 4.19289C16.8604 2.62536 19.4077 2.57435 20.9223 4.2082C22.4746 5.77661 22.5203 8.31156 20.8928 9.82132L11.4071 19.3071C9.21653 21.4976 5.78337 21.4976 3.59284 19.3071C1.40232 17.1166 1.40232 13.6834 3.59284 11.4929L11.6928 3.39289C12.0834 3.00237 12.7165 3.00237 13.1071 3.39289C13.4976 3.78342 13.4976 4.41658 13.1071 4.80711L5.00706 12.9071C3.59758 14.3166 3.59758 16.4834 5.00706 17.8929C6.41653 19.3024 8.58337 19.3024 9.99284 17.8929L19.4928 8.39289C19.5031 8.38265 19.5135 8.37263 19.5242 8.36284C20.274 7.67556 20.3202 6.43445 19.4928 5.60711C19.4826 5.59686 19.4726 5.5864 19.4628 5.57572Z" fill="#282828"/>
</svg>
