<svg width="24" height="24" viewBox="0 0 24 24" fill="none" xmlns="http://www.w3.org/2000/svg">
<path fill-rule="evenodd" clip-rule="evenodd" d="M5.68014 7.09436C4.62708 8.44904 4 10.1513 4 12C4 16.4183 7.58172 20 12 20C13.8487 20 15.551 19.3729 16.9056 18.3199L5.68014 7.09436ZM7.09436 5.68014L18.3199 16.9056C19.3729 15.551 20 13.8487 20 12C20 7.58172 16.4183 4 12 4C10.1513 4 8.44904 4.62708 7.09436 5.68014ZM2 12C2 6.47715 6.47715 2 12 2C17.5228 2 22 6.47715 22 12C22 17.5228 17.5228 22 12 22C6.47715 22 2 17.5228 2 12Z" fill="#282828"/>
</svg>
