<svg width="24" height="24" viewBox="0 0 24 24" fill="none" xmlns="http://www.w3.org/2000/svg">
<path fill-rule="evenodd" clip-rule="evenodd" d="M3 5C3 3.89543 3.89543 3 5 3H19C20.1046 3 21 3.89543 21 5V19C21 20.1046 20.1046 21 19 21H5C3.89543 21 3 20.1046 3 19V5ZM19 5H5V19H19V5ZM12 7C12.5523 7 13 7.44772 13 8V16C13 16.5523 12.5523 17 12 17C11.4477 17 11 16.5523 11 16V8C11 7.44772 11.4477 7 12 7ZM16 9C16.5523 9 17 9.44772 17 10V16C17 16.5523 16.5523 17 16 17C15.4477 17 15 16.5523 15 16V10C15 9.44772 15.4477 9 16 9ZM8 11C8.55228 11 9 11.4477 9 12V16C9 16.5523 8.55228 17 8 17C7.44772 17 7 16.5523 7 16V12C7 11.4477 7.44772 11 8 11Z" fill="#282828"/>
</svg>
