<svg width="24" height="24" viewBox="0 0 24 24" fill="none" xmlns="http://www.w3.org/2000/svg">
<path fill-rule="evenodd" clip-rule="evenodd" d="M4 6.6335V17.5129C4.85122 17.2485 6.03984 17 7.5 17C8.96016 17 10.1488 17.2485 11 17.5129V6.6335C10.8601 6.57696 10.692 6.51452 10.4971 6.45153C9.80787 6.22874 8.78699 6 7.5 6C6.21301 6 5.19213 6.22874 4.50288 6.45153C4.308 6.51452 4.13986 6.57696 4 6.6335ZM11.4914 6.86097L11.4924 6.86157L11.4939 6.86248L11.4952 6.86326C11.4953 6.86332 11.4944 6.86268 11.4914 6.86097ZM12 4.88528C11.7743 4.78519 11.4765 4.66622 11.1123 4.54847C10.2546 4.27126 9.02551 4 7.5 4C5.97449 4 4.74537 4.27126 3.88775 4.54847C3.45896 4.68707 3.12235 4.82736 2.88689 4.93656C2.76911 4.99119 2.67645 5.03812 2.61002 5.07329C2.5768 5.09089 2.55011 5.10555 2.5301 5.11679L2.5051 5.131L2.49638 5.13607L2.49297 5.13807L2.49151 5.13893C2.49119 5.13912 2.4902 5.13971 3 6L2.4902 5.13971C2.18633 5.31978 2 5.64679 2 6V19C2 19.3593 2.19275 19.691 2.50493 19.8689C2.8169 20.0466 3.20021 20.0435 3.50921 19.8606C3.50648 19.8622 3.50498 19.8631 3.50477 19.8632L3.50609 19.8625L3.50765 19.8616L3.50921 19.8606C3.51529 19.8572 3.52757 19.8505 3.54599 19.8408C3.58283 19.8213 3.64398 19.7901 3.72834 19.7509C3.89718 19.6726 4.15822 19.5629 4.50288 19.4515C5.19213 19.2287 6.21301 19 7.5 19C8.78699 19 9.80787 19.2287 10.4971 19.4515C10.8418 19.5629 11.1028 19.6726 11.2717 19.7509C11.356 19.7901 11.4172 19.8213 11.454 19.8408C11.4724 19.8505 11.4847 19.8573 11.4908 19.8608C11.4936 19.8623 11.495 19.8631 11.4952 19.8632M11.4952 19.8632L11.4939 19.8625L11.4924 19.8616L11.4908 19.8608C11.4908 19.8607 11.4909 19.8608 11.4908 19.8608C11.8048 20.0462 12.1954 20.0463 12.5092 19.8606C12.5076 19.8615 12.5064 19.8623 12.5057 19.8627L12.5076 19.8616L12.5092 19.8606C12.5153 19.8572 12.5276 19.8505 12.546 19.8408C12.5828 19.8213 12.644 19.7901 12.7283 19.7509C12.8972 19.6726 13.1582 19.5629 13.5029 19.4515C14.1921 19.2287 15.213 19 16.5 19C17.787 19 18.8079 19.2287 19.4971 19.4515C19.8418 19.5629 20.1028 19.6726 20.2717 19.7509C20.356 19.7901 20.4172 19.8213 20.454 19.8408C20.4724 19.8505 20.4847 19.8573 20.4908 19.8608L20.4919 19.8613C20.8007 20.0435 21.1835 20.0464 21.4951 19.8689C21.8072 19.691 22 19.3593 22 19V6C22 5.64679 21.8137 5.31978 21.5098 5.13971L21 6C21.5098 5.13971 21.5101 5.1399 21.5098 5.13971L21.5085 5.13893L21.507 5.13807L21.5036 5.13607L21.4949 5.131L21.4699 5.11679C21.4499 5.10555 21.4232 5.09089 21.39 5.07329C21.3236 5.03812 21.2309 4.99119 21.1131 4.93656C20.8776 4.82736 20.541 4.68707 20.1123 4.54847C19.2546 4.27126 18.0255 4 16.5 4C14.9745 4 13.7454 4.27126 12.8877 4.54847C12.5235 4.66622 12.2257 4.78519 12 4.88528M20 6.6335C19.8601 6.57696 19.692 6.51452 19.4971 6.45153C18.8079 6.22874 17.787 6 16.5 6C15.213 6 14.1921 6.22874 13.5029 6.45153C13.308 6.51452 13.1399 6.57696 13 6.6335V17.5129C13.8512 17.2485 15.0398 17 16.5 17C17.9602 17 19.1488 17.2485 20 17.5129V6.6335ZM12.5092 6.86075C12.5061 6.86246 12.5047 6.86332 12.5048 6.86326L12.5061 6.86248L12.5076 6.86157L12.5092 6.86075ZM20.4908 6.86075C20.4935 6.86228 20.495 6.86313 20.4952 6.86325L20.4939 6.86248L20.4908 6.86075ZM20.4908 19.8608C20.4923 19.8616 20.4934 19.8622 20.4941 19.8626L20.4919 19.8613" fill="#282828"/>
</svg>
