<svg width="24" height="24" viewBox="0 0 24 24" fill="none" xmlns="http://www.w3.org/2000/svg"><path d="M4 6.633c.14-.056.308-.118.503-.181A9.77 9.77 0 0 1 7.5 6a9.77 9.77 0 0 1 2.997.452c.195.063.363.125.503.181v10.88A11.817 11.817 0 0 0 7.5 17c-1.46 0-2.649.248-3.5.513V6.633zm8-1.748a9.257 9.257 0 0 0-.888-.337A11.769 11.769 0 0 0 7.5 4c-1.526 0-2.755.271-3.612.548a8.889 8.889 0 0 0-1.001.389 5.905 5.905 0 0 0-.357.18l-.025.014-.009.005-.003.002h-.001c-.002.002-.247.147-.002.002A1 1 0 0 0 2 6v13a1 1 0 0 0 1.51.86l-.005.003h.001l.002-.001.001-.001.037-.02c.037-.02.098-.05.182-.09.17-.078.43-.188.775-.3A9.77 9.77 0 0 1 7.5 19a9.77 9.77 0 0 1 2.997.451 6.9 6.9 0 0 1 .775.3 3.976 3.976 0 0 1 .223.112m0 0h-.001l-.002-.001-.001-.001c.314.185.704.185 1.018 0l.037-.02c.037-.02.098-.05.182-.09a6.9 6.9 0 0 1 .775-.3A9.77 9.77 0 0 1 16.5 19a9.77 9.77 0 0 1 2.997.451 6.9 6.9 0 0 1 .775.3 3.976 3.976 0 0 1 .219.11A1 1 0 0 0 22 19V6a1 1 0 0 0-.49-.86l-.002-.001h-.001l-.003-.003-.01-.005-.024-.014a5.883 5.883 0 0 0-.357-.18 8.897 8.897 0 0 0-1-.389A11.769 11.769 0 0 0 16.5 4c-1.525 0-2.755.271-3.612.548a9.112 9.112 0 0 0-.888.337m8 1.748v10.88A11.817 11.817 0 0 0 16.5 17c-1.46 0-2.649.248-3.5.513V6.633c.14-.056.308-.118.503-.181A9.77 9.77 0 0 1 16.5 6a9.77 9.77 0 0 1 2.997.452c.195.063.363.125.503.181zm.49.228l.005.002h-.001l-.003-.002zm0 13l.004.002-.002-.002" fill="#0D0D0D"/></svg>