<svg width="24" height="24" viewBox="0 0 24 24" fill="none" xmlns="http://www.w3.org/2000/svg">
<path fill-rule="evenodd" clip-rule="evenodd" d="M9 2C9.55228 2 10 2.44772 10 3V4H14V3C14 2.44772 14.4477 2 15 2C15.5523 2 16 2.44772 16 3V4H19C20.1046 4 21 4.89543 21 6V19C21 20.1046 20.1046 21 19 21H5C3.89543 21 3 20.1046 3 19V6C3 4.89543 3.89543 4 5 4H8V3C8 2.44772 8.44772 2 9 2ZM8 6H5V9H19V6H16V7C16 7.55228 15.5523 8 15 8C14.4477 8 14 7.55228 14 7V6H10V7C10 7.55228 9.55228 8 9 8C8.44772 8 8 7.55228 8 7V6ZM19 11H5V19H19V11Z" fill="#282828"/>
</svg>
