<svg width="24" height="24" viewBox="0 0 24 24" fill="none" xmlns="http://www.w3.org/2000/svg">
<path d="M12 3.99999C7.58172 3.99999 4 7.58171 4 12C4 16.4183 7.58172 20 12 20C16.4183 20 20 16.4183 20 12C20 7.58171 16.4183 3.99999 12 3.99999ZM2 12C2 6.47714 6.47715 1.99999 12 1.99999C17.5228 1.99999 22 6.47714 22 12C22 17.5228 17.5228 22 12 22C6.47715 22 2 17.5228 2 12ZM12 6.99999C12.5523 6.99999 13 7.44771 13 7.99999V11H16C16.5523 11 17 11.4477 17 12C17 12.5523 16.5523 13 16 13H13V16C13 16.5523 12.5523 17 12 17C11.4477 17 11 16.5523 11 16V13H8C7.44772 13 7 12.5523 7 12C7 11.4477 7.44772 11 8 11H11V7.99999C11 7.44771 11.4477 6.99999 12 6.99999Z" fill="#0D0D0D"/>
</svg>
