<svg width="24" height="24" viewBox="0 0 24 24" fill="none" xmlns="http://www.w3.org/2000/svg">
<path fill-rule="evenodd" clip-rule="evenodd" d="M12 4C7.58172 4 4 7.58172 4 12C4 16.4183 7.58172 20 12 20C16.4183 20 20 16.4183 20 12C20 7.58172 16.4183 4 12 4ZM2 12C2 6.47715 6.47715 2 12 2C17.5228 2 22 6.47715 22 12C22 17.5228 17.5228 22 12 22C6.47715 22 2 17.5228 2 12ZM11 9.41421L8.70711 11.7071C8.31658 12.0976 7.68342 12.0976 7.29289 11.7071C6.90237 11.3166 6.90237 10.6834 7.29289 10.2929L11.2929 6.29289C11.6834 5.90237 12.3166 5.90237 12.7071 6.29289L16.7071 10.2929C17.0976 10.6834 17.0976 11.3166 16.7071 11.7071C16.3166 12.0976 15.6834 12.0976 15.2929 11.7071L13 9.41421V17C13 17.5523 12.5523 18 12 18C11.4477 18 11 17.5523 11 17V9.41421Z" fill="#282828"/>
</svg>
