<svg width="24" height="24" viewBox="0 0 24 24" fill="none" xmlns="http://www.w3.org/2000/svg"><path d="M9 11.5a1 1 0 1 0 0-2 1 1 0 0 0 0 2zM11 10.5a1 1 0 0 1 1-1h3a1 1 0 1 1 0 2h-3a1 1 0 0 1-1-1zM12 12.5a1 1 0 1 0 0 2h3a1 1 0 1 0 0-2h-3zM12 15.5a1 1 0 1 0 0 2h3a1 1 0 1 0 0-2h-3zM10 13.5a1 1 0 1 1-2 0 1 1 0 0 1 2 0zM9 17.5a1 1 0 1 0 0-2 1 1 0 0 0 0 2z" fill="#0D0D0D"/><path d="M9 2a1 1 0 0 0-1 1H6a2 2 0 0 0-2 2v15a2 2 0 0 0 2 2h12a2 2 0 0 0 2-2V5a2 2 0 0 0-2-2h-2a1 1 0 0 0-1-1H9zm7 3h2v15H6V5h2v1a1 1 0 0 0 1 1h6a1 1 0 0 0 1-1V5zm-6 0V4h4v1h-4z" fill="#0D0D0D"/></svg>