<svg width="24" height="24" viewBox="0 0 24 24" fill="none" xmlns="http://www.w3.org/2000/svg">
<path fill-rule="evenodd" clip-rule="evenodd" d="M2 6C2 4.89543 2.89543 4 4 4L20 4C21.1046 4 22 4.89543 22 6V8.99803C22 8.99868 22 8.99934 22 9C22 9.00066 22 9.00132 22 9.00198V18C22 19.1046 21.1046 20 20 20H4C2.89543 20 2 19.1046 2 18L2 6ZM20 8V6L4 6V8H20ZM4 10H20V18H4L4 10ZM6 13C6 12.4477 6.44772 12 7 12H11C11.5523 12 12 12.4477 12 13C12 13.5523 11.5523 14 11 14H7C6.44772 14 6 13.5523 6 13ZM13 13C13 12.4477 13.4477 12 14 12H16C16.5523 12 17 12.4477 17 13C17 13.5523 16.5523 14 16 14H14C13.4477 14 13 13.5523 13 13Z" fill="#282828"/>
</svg>
