<svg width="24" height="24" viewBox="0 0 24 24" fill="none" xmlns="http://www.w3.org/2000/svg">
<path d="M7,4 C7,2.89543 7.89543,2 9,2 L15,2 C16.1046,2 17,2.89543 17,4 L17,6 L18.9897,6 C18.9959,5.99994 19.0021,5.99994 19.0083,6 L21,6 C21.5523,6 22,6.44772 22,7 C22,7.55228 21.5523,8 21,8 L19.9311,8 L19.0638,20.1425 C18.989,21.1891 18.1182,22 17.0689,22 L6.93112,22 C5.88184,22 5.01096,21.1891 4.9362,20.1425 L4.06888,8 L3,8 C2.44772,8 2,7.55228 2,7 C2,6.44772 2.44772,6 3,6 L4.99174,6 C4.99795,5.99994 5.00414,5.99994 5.01032,6 L7,6 L7,4 Z M9,6 L15,6 L15,4 L9,4 L9,6 Z M6.07398,8 L6.93112,20 L17.0689,20 L17.926,8 L6.07398,8 Z" fill="#0D0D0D"/>
</svg>
