<svg width="24" height="24" viewBox="0 0 24 24" fill="none" xmlns="http://www.w3.org/2000/svg">
<path fill-rule="evenodd" clip-rule="evenodd" d="M5.70711 4.29289C5.31658 3.90237 4.68342 3.90237 4.29289 4.29289C3.90237 4.68342 3.90237 5.31658 4.29289 5.70711L19.2929 20.7071C19.6834 21.0976 20.3166 21.0976 20.7071 20.7071C21.0976 20.3166 21.0976 19.6834 20.7071 19.2929L18.2829 16.8687C19.7136 15.7926 20.9607 14.3146 21.8944 12.4472C22.0351 12.1657 22.0351 11.8343 21.8944 11.5528C19.7362 7.23635 15.9031 5 12 5C10.4448 5 8.90078 5.35502 7.46938 6.05518L5.70711 4.29289ZM8.9862 7.57201L10.7065 9.29237C11.0982 9.10495 11.5368 9 12 9C13.6568 9 15 10.3431 15 12C15 12.4631 14.895 12.9018 14.7076 13.2934L16.8516 15.4374C18.0122 14.6206 19.0527 13.4786 19.8703 12C18.0019 8.62078 14.9687 7 12 7C10.9866 7 9.96569 7.18885 8.9862 7.57201Z" fill="#282828"/>
<path d="M4.14616 8.56037C3.36812 9.4096 2.67795 10.408 2.10557 11.5528C1.96481 11.8343 1.96481 12.1657 2.10557 12.4472C4.26379 16.7637 8.09687 19 12 19C12.7801 19 13.5574 18.9107 14.319 18.7333L12.5661 16.9804C12.3774 16.9935 12.1886 17 12 17C9.03121 17 5.99806 15.3792 4.12966 12C4.55214 11.2359 5.03419 10.5617 5.56157 9.97579L4.14616 8.56037Z" fill="#282828"/>
</svg>
