<svg width="24" height="24" viewBox="0 0 24 24" fill="none" xmlns="http://www.w3.org/2000/svg">
<path fill-rule="evenodd" clip-rule="evenodd" d="M3.00004 5C3.00004 3.89543 3.89547 3 5.00004 3H19C20.1046 3 21 3.89543 21 5V19C21 20.1046 20.1046 21 19 21H5.00004C3.89547 21 3.00004 20.1046 3.00004 19V5ZM19 5H5.00004V19H19V5Z" fill="#0D0D0D"/>
<path fill-rule="evenodd" clip-rule="evenodd" d="M8.37534 10.2191C8.74056 9.92696 9.25951 9.92696 9.62473 10.2191L13.9258 13.66L15.2929 12.2929C15.6835 11.9024 16.3166 11.9024 16.7071 12.2929L20.7071 16.2929C21.0977 16.6834 21.0977 17.3166 20.7071 17.7071C20.3166 18.0976 19.6835 18.0976 19.2929 17.7071L16 14.4142L14.7071 15.7071C14.3468 16.0674 13.7732 16.0992 13.3753 15.7809L9.00004 12.2806L4.62473 15.7809C4.19347 16.1259 3.56418 16.056 3.21917 15.6247C2.87416 15.1934 2.94408 14.5641 3.37534 14.2191L8.37534 10.2191Z" fill="#0D0D0D"/>
<path d="M17 8.5C17 9.32843 16.3285 10 15.5 10C14.6716 10 14 9.32843 14 8.5C14 7.67157 14.6716 7 15.5 7C16.3285 7 17 7.67157 17 8.5Z" fill="#0D0D0D"/>
</svg>
