<svg width="24" height="24" viewBox="0 0 24 24" fill="none" xmlns="http://www.w3.org/2000/svg">
<path d="M15.5 10C16.3284 10 17 9.32843 17 8.5C17 7.67157 16.3284 7 15.5 7C14.6716 7 14 7.67157 14 8.5C14 9.32843 14.6716 10 15.5 10Z" fill="#0D0D0D"/>
<path fill-rule="evenodd" clip-rule="evenodd" d="M3 5C3 3.89543 3.89543 3 5 3H19C20.1046 3 21 3.89543 21 5V19C21 20.1046 20.1046 21 19 21H5C3.89543 21 3 20.1046 3 19V5ZM19 5V14.5857L16.7071 12.2929C16.3166 11.9024 15.6835 11.9024 15.2929 12.2929L13.9258 13.66L9.62473 10.2191C9.25951 9.92696 8.74056 9.92696 8.37534 10.2191L5 12.9194V5H19ZM5 19V15.4807L9.00004 12.2806L13.3753 15.7809C13.7732 16.0992 14.3468 16.0674 14.7071 15.7071L16 14.4142L19 17.4142V19H5Z" fill="#0D0D0D"/>
</svg>
