<svg width="24" height="24" viewBox="0 0 24 24" fill="none" xmlns="http://www.w3.org/2000/svg">
<path d="M8 8C5.75228 8 4 9.75228 4 12C4 14.2477 5.75228 16 8 16H10C10.5523 16 11 16.4477 11 17C11 17.5523 10.5523 18 10 18H8C4.64772 18 2 15.3523 2 12C2 8.64772 4.64772 6 8 6H10C10.5523 6 11 6.44772 11 7C11 7.55228 10.5523 8 10 8H8ZM13 7C13 6.44772 13.4477 6 14 6H16C19.3523 6 22 8.64772 22 12C22 15.3523 19.3523 18 16 18H14C13.4477 18 13 17.5523 13 17C13 16.4477 13.4477 16 14 16H16C18.2477 16 20 14.2477 20 12C20 9.75228 18.2477 8 16 8H14C13.4477 8 13 7.55228 13 7ZM7 12C7 11.4477 7.44772 11 8 11H16C16.5523 11 17 11.4477 17 12C17 12.5523 16.5523 13 16 13H8C7.44772 13 7 12.5523 7 12Z" fill="#0D0D0D"/>
</svg>
