<svg width="24" height="24" viewBox="0 0 24 24" fill="none" xmlns="http://www.w3.org/2000/svg">
<path fill-rule="evenodd" clip-rule="evenodd" d="M12 4C8.68629 4 6 6.68629 6 10C6 11.0279 6.36394 12.1768 6.9815 13.3678C7.59457 14.5501 8.4236 15.7092 9.27193 16.7393C10.1178 17.7664 10.9665 18.6457 11.6048 19.2688C11.7483 19.4089 11.8809 19.5357 12 19.6481C12.1191 19.5357 12.2517 19.4089 12.3952 19.2688C13.0335 18.6457 13.8822 17.7664 14.7281 16.7393C15.5764 15.7092 16.4054 14.5501 17.0185 13.3678C17.6361 12.1768 18 11.0279 18 10C18 6.68629 15.3137 4 12 4ZM12 21C11.3492 21.7593 11.349 21.7591 11.3488 21.7589L11.3467 21.7571L11.3417 21.7528L11.3241 21.7376C11.3092 21.7246 11.2878 21.7059 11.2604 21.6818C11.2055 21.6334 11.1266 21.5632 11.0269 21.4727C10.8277 21.2918 10.5454 21.0296 10.2077 20.6999C9.5335 20.0418 8.63218 19.1086 7.72807 18.0107C6.8264 16.9158 5.90543 15.6374 5.206 14.2884C4.51106 12.9482 4 11.4721 4 10C4 5.58172 7.58172 2 12 2C16.4183 2 20 5.58172 20 10C20 11.4721 19.4889 12.9482 18.794 14.2884C18.0946 15.6374 17.1736 16.9158 16.2719 18.0107C15.3678 19.1086 14.4665 20.0418 13.7923 20.6999C13.4546 21.0296 13.1723 21.2918 12.9731 21.4727C12.8734 21.5632 12.7945 21.6334 12.7396 21.6818C12.7122 21.7059 12.6908 21.7246 12.6759 21.7376L12.6583 21.7528L12.6533 21.7571L12.6517 21.7585C12.6515 21.7586 12.6508 21.7593 12 21ZM12 21L11.3488 21.7589C11.7233 22.0799 12.2763 22.0802 12.6508 21.7593L12 21ZM12 8C10.8954 8 10 8.89543 10 10C10 11.1046 10.8954 12 12 12C13.1046 12 14 11.1046 14 10C14 8.89543 13.1046 8 12 8ZM8 10C8 7.79086 9.79086 6 12 6C14.2091 6 16 7.79086 16 10C16 12.2091 14.2091 14 12 14C9.79086 14 8 12.2091 8 10Z" fill="#282828"/>
</svg>
