<svg xmlns="http://www.w3.org/2000/svg" width="294.995" height="45.001"><g data-name="Group 2991"><g data-name="Group 2989"><path data-name="Path 1352" d="M44.901 22.501a22.451 22.451 0 10-22.451 22.5 22.476 22.476 0 0022.451-22.5"/><path data-name="Rectangle 3905" d="M44.899 1.125h23.752v42.749H44.899z"/></g><g data-name="Group 2988"><path data-name="Path 1353" d="M127.182 10.69v16.613h-6.986V12.951c0-3.769-1.908-5.843-5.079-5.843-3.01 0-5.508 1.967-5.508 5.9v14.3h-7.013V12.951c0-3.769-1.881-5.843-5.079-5.843-3.009 0-5.508 1.967-5.508 5.9v14.3h-7.013V1.211h6.825v3.07a8.718 8.718 0 017.658-3.77 9.855 9.855 0 018.6 4.47c2.016-3.312 5.428-4.47 8.841-4.47 6.126 0 10.264 4.12 10.264 10.179"/><path data-name="Path 1354" d="M156.921 14.218a20.422 20.422 0 01-.134 2.369h-18.46c.752 3.77 3.386 5.413 6.691 5.413a10.514 10.514 0 006.582-2.5l4.112 4.524a15.778 15.778 0 01-11.1 3.958c-7.98 0-13.515-5.439-13.515-13.653S136.471.514 144.263.514c7.5 0 12.629 5.574 12.656 13.707m-18.567-2.425h11.527c-.645-3.339-2.661-5.223-5.67-5.223-3.305 0-5.24 1.992-5.857 5.223"/><path data-name="Path 1355" d="M185.238 14.218a20.235 20.235 0 01-.134 2.369h-18.459c.753 3.77 3.386 5.413 6.691 5.413a10.516 10.516 0 006.583-2.5l4.111 4.524a15.78 15.78 0 01-11.1 3.958c-7.98 0-13.515-5.439-13.515-13.653S164.789.514 172.581.514c7.5 0 12.629 5.574 12.656 13.707m-18.567-2.425h11.527c-.645-3.339-2.66-5.223-5.669-5.223-3.305 0-5.241 1.992-5.858 5.223"/><path data-name="Path 1356" d="M231.531 10.69v16.613h-6.986V12.951c0-3.769-1.909-5.843-5.079-5.843-3.01 0-5.509 1.967-5.509 5.9v14.3h-7.013V12.951c0-3.769-1.88-5.843-5.078-5.843-3.009 0-5.509 1.967-5.509 5.9v14.3h-7.012V1.211h6.825v3.07a8.717 8.717 0 017.658-3.77 9.856 9.856 0 018.6 4.47c2.015-3.312 5.427-4.47 8.84-4.47 6.127 0 10.265 4.12 10.265 10.179"/><path data-name="Path 1357" d="M263.608 14.244c0 7.864-5.992 13.734-14.107 13.734-8.087 0-14.052-5.87-14.052-13.734S241.414.511 249.501.511c8.116 0 14.107 5.87 14.107 13.733m-21.012 0a6.924 6.924 0 106.905-7.19 6.815 6.815 0 00-6.905 7.19"/><path data-name="Path 1358" d="M294.263 14.244c0 7.864-5.992 13.734-14.106 13.734-8.088 0-14.053-5.87-14.053-13.734S272.069.511 280.157.511c8.115 0 14.106 5.87 14.106 13.733m-21.012 0a6.924 6.924 0 106.906-7.19 6.816 6.816 0 00-6.906 7.19"/><path data-name="Path 1359" d="M92.431 36.675l-2.762 8.19h-1.914l-2.761-8.19h1.693l2.037 6.447 2.049-6.447z"/><path data-name="Path 1360" d="M98.595 43.379v1.486H93.26v-8.191h1.6v6.7z"/><path data-name="Path 1361" d="M104.203 43.011h-3.007l-.595 1.854h-1.659l2.826-8.19h1.891l2.825 8.19h-1.687zm-.473-1.457l-1.033-3.206-1.028 3.206z"/><path data-name="Path 1362" d="M111.93 43.011h-3.006l-.6 1.854h-1.65l2.825-8.19h1.892l2.825 8.19h-1.688zm-.473-1.457l-1.033-3.206-1.028 3.206z"/><path data-name="Path 1363" d="M123.252 44.865h-1.588V38.84l-1.7 4.709h-1.622l-1.7-4.685v6h-1.594v-8.19h2.253l1.856 4.979 1.856-4.979h2.247z"/><path data-name="Path 1364" d="M129.708 38.71a3.359 3.359 0 00-1.99-.673c-.777 0-1.331.345-1.331.937 0 .549.566.783 1.454.989l.484.11c1.425.327 2.312 1.041 2.312 2.334 0 1.726-1.413 2.586-3.076 2.586a4.616 4.616 0 01-3.117-1.111l.922-1.206a3.342 3.342 0 002.2.831c.787 0 1.378-.339 1.378-.948 0-.537-.467-.783-1.4-.989l-.532-.117c-1.5-.327-2.3-1.111-2.3-2.409 0-1.51 1.248-2.5 2.971-2.5a4.681 4.681 0 012.871.93z"/><path data-name="Rectangle 3906" d="M134.277 36.675h1.599v8.19h-1.599z"/><path data-name="Path 1365" d="M144.003 44.865h-1.529l-3.526-5.324v5.324h-1.588v-8.19h1.53l3.532 5.336v-5.336h1.582z"/><path data-name="Path 1366" d="M150.459 38.71a3.357 3.357 0 00-1.99-.673c-.777 0-1.331.345-1.331.937 0 .549.567.783 1.454.989l.485.11c1.424.327 2.312 1.041 2.312 2.334 0 1.726-1.414 2.586-3.077 2.586a4.613 4.613 0 01-3.116-1.111l.921-1.206a3.344 3.344 0 002.2.831c.788 0 1.378-.339 1.378-.948 0-.537-.467-.783-1.4-.989l-.531-.117c-1.5-.327-2.3-1.111-2.3-2.409 0-1.51 1.25-2.5 2.971-2.5a4.686 4.686 0 012.872.93z"/><path data-name="Path 1367" d="M158.011 38.161h-2.236v6.7h-1.6v-6.7h-2.236v-1.486h6.072z"/><path data-name="Rectangle 3907" d="M158.907 36.675h1.599v8.19h-1.599z"/><path data-name="Path 1368" d="M167.467 38.161h-2.236v6.7h-1.6v-6.7h-2.237v-1.486h6.072z"/><path data-name="Path 1369" d="M174.653 41.864a3.184 3.184 0 01-6.368 0v-5.189h1.6v5.107a1.59 1.59 0 103.176 0v-5.107h1.592z"/><path data-name="Path 1370" d="M182.365 41.864a3.184 3.184 0 01-6.368 0v-5.189h1.6v5.107a1.59 1.59 0 103.176 0v-5.107h1.594z"/><path data-name="Path 1371" d="M189.257 38.161h-2.236v6.7h-1.6v-6.7h-2.236v-1.486h6.071z"/><path data-name="Path 1372" d="M199.098 36.675l-2.761 8.19h-1.915l-2.762-8.19h1.693l2.037 6.447 2.049-6.447z"/><path data-name="Path 1373" d="M206.884 40.769c0 2.545-1.529 4.23-3.788 4.23s-3.789-1.684-3.789-4.23 1.529-4.229 3.789-4.229 3.788 1.684 3.788 4.229m-5.919 0c0 1.679.875 2.68 2.131 2.68s2.13-1 2.13-2.68-.875-2.679-2.13-2.679-2.131 1-2.131 2.679"/><path data-name="Path 1374" d="M215.341 40.769c0 2.545-1.529 4.23-3.789 4.23s-3.788-1.684-3.788-4.23 1.528-4.229 3.788-4.229 3.789 1.684 3.789 4.229m-5.919 0c0 1.679.874 2.68 2.13 2.68s2.131-1 2.131-2.68-.875-2.679-2.131-2.679-2.13 1-2.13 2.679"/><path data-name="Path 1375" d="M218.524 41.642h-.4v3.223h-1.6v-8.19h3.047c1.826 0 2.86.947 2.86 2.527a2.332 2.332 0 01-2.188 2.393l2.253 3.27h-1.879zm-.4-1.363h1.431c.776 0 1.243-.351 1.243-1.077s-.479-1.059-1.243-1.059h-1.431z"/><path data-name="Path 1376" d="M232.558 36.675v8.19h-1.594v-3.393h-3.292v3.393h-1.6v-8.19h1.6v3.314h3.292v-3.317z"/><path data-name="Path 1377" d="M239.469 43.408v1.457h-5.418v-8.19h5.4v1.456h-3.806v1.872h3.606v1.457h-3.607v1.948z"/><path data-name="Path 1378" d="M246.285 38.161h-2.236v6.7h-1.6v-6.7h-2.236v-1.486h6.071z"/><path data-name="Path 1379" d="M253.983 43.011h-3.006l-.6 1.854h-1.658l2.825-8.19h1.892l2.825 8.19h-1.688zm-.473-1.457l-1.033-3.206-1.028 3.206z"/><path data-name="Path 1380" d="M259.095 41.642h-.4v3.223h-1.6v-8.19h3.047c1.827 0 2.861.947 2.861 2.527a2.333 2.333 0 01-2.189 2.393l2.254 3.27h-1.88zm-.4-1.363h1.431c.777 0 1.243-.351 1.243-1.077s-.479-1.059-1.243-1.059h-1.431z"/><path data-name="Path 1381" d="M270.756 38.389l-1.377.754a1.93 1.93 0 00-1.752-1.053c-1.226 0-2.107 1-2.107 2.68.006 1.736.928 2.679 2.113 2.679a1.973 1.973 0 001.763-1.047l1.32.837A3.4 3.4 0 01267.633 45c-2.241 0-3.771-1.668-3.771-4.23s1.529-4.23 3.771-4.23a3.367 3.367 0 013.123 1.849"/><path data-name="Path 1382" d="M278.319 36.675v8.19h-1.594v-3.393h-3.292v3.393h-1.6v-8.19h1.6v3.314h3.292v-3.317z"/><path data-name="Rectangle 3908" d="M279.807 36.675h1.6v8.19h-1.6z"/><path data-name="Path 1383" d="M288.312 43.408v1.457h-5.419v-8.19h5.4v1.456h-3.8v1.872h3.6v1.457h-3.6v1.948z"/><path data-name="Path 1384" d="M291.253 38.131v1.937h3.5v1.456h-3.5v3.341h-1.6v-8.19h5.343v1.456z"/></g></g></svg>