<svg xmlns="http://www.w3.org/2000/svg" width="294.995" height="45.001" viewBox="0 0 294.995 45.001">
  <g id="Group_2991" data-name="Group 2991" transform="translate(13103.995 2102)">
    <g id="Group_2989" data-name="Group 2989" transform="translate(239.004 -3)">
      <path id="Path_1352" data-name="Path 1352" d="M232.766,382.907a22.451,22.451,0,1,0-22.451,22.5,22.476,22.476,0,0,0,22.451-22.5" transform="translate(-13530.864 -2459.406)" fill="#000000"></path>
      <rect id="Rectangle_3905" data-name="Rectangle 3905" width="23.752" height="42.749" transform="translate(-13298.1 -2097.875)" fill="#000000"></rect>
    </g>
    <g id="Group_2988" data-name="Group 2988" transform="translate(324 -62)">
      <path id="Path_1353" data-name="Path 1353" d="M230.051,432.587V449.2h-6.986V434.848c0-3.769-1.908-5.843-5.079-5.843-3.01,0-5.508,1.967-5.508,5.9v14.3h-7.013V434.848c0-3.769-1.881-5.843-5.079-5.843-3.009,0-5.508,1.967-5.508,5.9v14.3h-7.013V423.108h6.825v3.07a8.718,8.718,0,0,1,7.658-3.77,9.855,9.855,0,0,1,8.6,4.47c2.016-3.312,5.428-4.47,8.841-4.47,6.126,0,10.264,4.12,10.264,10.179" transform="translate(-13530.864 -2461.897)"></path>
      <path id="Path_1354" data-name="Path 1354" d="M261.826,436.115a20.422,20.422,0,0,1-.134,2.369h-18.46c.752,3.77,3.386,5.413,6.691,5.413a10.514,10.514,0,0,0,6.582-2.5l4.112,4.524a15.778,15.778,0,0,1-11.1,3.958c-7.98,0-13.515-5.439-13.515-13.653s5.374-13.815,13.166-13.815c7.5,0,12.629,5.574,12.656,13.707m-18.567-2.425h11.527c-.645-3.339-2.661-5.223-5.67-5.223-3.305,0-5.24,1.992-5.857,5.223" transform="translate(-13532.9 -2461.897)"></path>
      <path id="Path_1355" data-name="Path 1355" d="M291.393,436.115a20.235,20.235,0,0,1-.134,2.369H272.8c.753,3.77,3.386,5.413,6.691,5.413a10.516,10.516,0,0,0,6.583-2.5l4.111,4.524a15.78,15.78,0,0,1-11.1,3.958c-7.98,0-13.515-5.439-13.515-13.653s5.374-13.815,13.166-13.815c7.5,0,12.629,5.574,12.656,13.707m-18.567-2.425h11.527c-.645-3.339-2.66-5.223-5.669-5.223-3.305,0-5.241,1.992-5.858,5.223" transform="translate(-13534.15 -2461.897)"></path>
      <path id="Path_1356" data-name="Path 1356" d="M339.008,432.587V449.2h-6.986V434.848c0-3.769-1.909-5.843-5.079-5.843-3.01,0-5.509,1.967-5.509,5.9v14.3h-7.013V434.848c0-3.769-1.88-5.843-5.078-5.843-3.009,0-5.509,1.967-5.509,5.9v14.3h-7.012V423.108h6.825v3.07a8.717,8.717,0,0,1,7.658-3.77,9.856,9.856,0,0,1,8.6,4.47c2.015-3.312,5.427-4.47,8.84-4.47,6.127,0,10.265,4.12,10.265,10.179" transform="translate(-13535.472 -2461.897)"></path>
      <path id="Path_1357" data-name="Path 1357" d="M373.12,436.141c0,7.864-5.992,13.734-14.107,13.734-8.087,0-14.052-5.87-14.052-13.734s5.965-13.733,14.052-13.733c8.116,0,14.107,5.87,14.107,13.733m-21.012,0a6.924,6.924,0,1,0,6.905-7.19,6.815,6.815,0,0,0-6.905,7.19" transform="translate(-13537.507 -2461.897)"></path>
      <path id="Path_1358" data-name="Path 1358" d="M405.128,436.141c0,7.864-5.992,13.734-14.106,13.734-8.088,0-14.053-5.87-14.053-13.734s5.965-13.733,14.053-13.733c8.115,0,14.106,5.87,14.106,13.733m-21.012,0a6.924,6.924,0,1,0,6.906-7.19,6.816,6.816,0,0,0-6.906,7.19" transform="translate(-13538.86 -2461.897)"></path>
      <path id="Path_1359" data-name="Path 1359" d="M195.3,460.086l-2.762,8.19h-1.914l-2.761-8.19h1.693l2.037,6.447,2.049-6.447Z" transform="translate(-13530.864 -2463.411)"></path>
      <path id="Path_1360" data-name="Path 1360" d="M201.829,466.79v1.486h-5.335v-8.191h1.6v6.7Z" transform="translate(-13531.229 -2463.411)"></path>
      <path id="Path_1361" data-name="Path 1361" d="M207.688,466.422h-3.007l-.595,1.854h-1.659l2.826-8.19h1.891l2.825,8.19h-1.687Zm-.473-1.457-1.033-3.206-1.028,3.206Z" transform="translate(-13531.48 -2463.411)"></path>
      <path id="Path_1362" data-name="Path 1362" d="M215.756,466.422H212.75l-.6,1.854H210.5l2.825-8.19h1.892l2.825,8.19h-1.688Zm-.473-1.457-1.033-3.206-1.028,3.206Z" transform="translate(-13531.821 -2463.411)"></path>
      <path id="Path_1363" data-name="Path 1363" d="M227.448,468.276H225.86v-6.025l-1.7,4.709h-1.622l-1.7-4.685v6h-1.594v-8.19h2.253l1.856,4.979,1.856-4.979h2.247Z" transform="translate(-13532.191 -2463.411)"></path>
      <path id="Path_1364" data-name="Path 1364" d="M234.319,462.116a3.359,3.359,0,0,0-1.99-.673c-.777,0-1.331.345-1.331.937,0,.549.566.783,1.454.989l.484.11c1.425.327,2.312,1.041,2.312,2.334,0,1.726-1.413,2.586-3.076,2.586a4.616,4.616,0,0,1-3.117-1.111l.922-1.206a3.342,3.342,0,0,0,2.2.831c.787,0,1.378-.339,1.378-.948,0-.537-.467-.783-1.4-.989l-.532-.117c-1.5-.327-2.3-1.111-2.3-2.409,0-1.51,1.248-2.5,2.971-2.5a4.681,4.681,0,0,1,2.871.93Z" transform="translate(-13532.606 -2463.406)"></path>
      <rect id="Rectangle_3906" data-name="Rectangle 3906" width="1.599" height="8.19" transform="translate(-13293.718 -2003.325)"></rect>
      <path id="Path_1365" data-name="Path 1365" d="M249.185,468.276h-1.529l-3.526-5.324v5.324h-1.588v-8.19h1.53l3.532,5.336v-5.336h1.582Z" transform="translate(-13533.177 -2463.411)"></path>
      <path id="Path_1366" data-name="Path 1366" d="M255.986,462.116a3.357,3.357,0,0,0-1.99-.673c-.777,0-1.331.345-1.331.937,0,.549.567.783,1.454.989l.485.11c1.424.327,2.312,1.041,2.312,2.334,0,1.726-1.414,2.586-3.077,2.586a4.613,4.613,0,0,1-3.116-1.111l.921-1.206a3.344,3.344,0,0,0,2.2.831c.788,0,1.378-.339,1.378-.948,0-.537-.467-.783-1.4-.989l-.531-.117c-1.5-.327-2.3-1.111-2.3-2.409,0-1.51,1.25-2.5,2.971-2.5a4.686,4.686,0,0,1,2.872.93Z" transform="translate(-13533.522 -2463.406)"></path>
      <path id="Path_1367" data-name="Path 1367" d="M263.836,461.572H261.6v6.7H260v-6.7h-2.236v-1.486h6.072Z" transform="translate(-13533.82 -2463.411)"></path>
      <rect id="Rectangle_3907" data-name="Rectangle 3907" width="1.599" height="8.19" transform="translate(-13269.088 -2003.325)"></rect>
      <path id="Path_1368" data-name="Path 1368" d="M273.709,461.572h-2.236v6.7h-1.6v-6.7h-2.237v-1.486h6.072Z" transform="translate(-13534.237 -2463.411)"></path>
      <path id="Path_1369" data-name="Path 1369" d="M281.2,465.275a3.184,3.184,0,0,1-6.368,0v-5.189h1.6v5.107a1.59,1.59,0,1,0,3.176,0v-5.107H281.2Z" transform="translate(-13534.542 -2463.411)"></path>
      <path id="Path_1370" data-name="Path 1370" d="M289.252,465.275a3.184,3.184,0,0,1-6.368,0v-5.189h1.6v5.107a1.59,1.59,0,1,0,3.176,0v-5.107h1.594Z" transform="translate(-13534.882 -2463.411)"></path>
      <path id="Path_1371" data-name="Path 1371" d="M296.461,461.572h-2.236v6.7h-1.6v-6.7h-2.236v-1.486h6.071Z" transform="translate(-13535.199 -2463.411)"></path>
      <path id="Path_1372" data-name="Path 1372" d="M306.676,460.086l-2.761,8.19H302l-2.762-8.19h1.693l2.037,6.447,2.049-6.447Z" transform="translate(-13535.573 -2463.411)"></path>
      <path id="Path_1373" data-name="Path 1373" d="M314.8,464.175c0,2.545-1.529,4.23-3.788,4.23s-3.789-1.684-3.789-4.23,1.529-4.229,3.789-4.229,3.788,1.684,3.788,4.229m-5.919,0c0,1.679.875,2.68,2.131,2.68s2.13-1,2.13-2.68-.875-2.679-2.13-2.679-2.131,1-2.131,2.679" transform="translate(-13535.911 -2463.406)"></path>
      <path id="Path_1374" data-name="Path 1374" d="M323.63,464.175c0,2.545-1.529,4.23-3.789,4.23s-3.788-1.684-3.788-4.23,1.528-4.229,3.788-4.229,3.789,1.684,3.789,4.229m-5.919,0c0,1.679.874,2.68,2.13,2.68s2.131-1,2.131-2.68-.875-2.679-2.131-2.679-2.13,1-2.13,2.679" transform="translate(-13536.284 -2463.406)"></path>
      <path id="Path_1375" data-name="Path 1375" d="M327.2,465.053h-.4v3.223h-1.6v-8.19h3.047c1.826,0,2.86.947,2.86,2.527a2.332,2.332,0,0,1-2.188,2.393l2.253,3.27h-1.879Zm-.4-1.363h1.431c.776,0,1.243-.351,1.243-1.077s-.479-1.059-1.243-1.059H326.8Z" transform="translate(-13536.671 -2463.411)"></path>
      <path id="Path_1376" data-name="Path 1376" d="M341.656,460.086v8.19h-1.594v-3.393H336.77v3.393h-1.6v-8.19h1.6V463.4h3.292v-3.317Z" transform="translate(-13537.093 -2463.411)"></path>
      <path id="Path_1377" data-name="Path 1377" d="M348.918,466.819v1.457H343.5v-8.19H348.9v1.456h-3.806v1.872H348.7v1.457h-3.607v1.948Z" transform="translate(-13537.444 -2463.411)"></path>
      <path id="Path_1378" data-name="Path 1378" d="M356.007,461.572h-2.236v6.7h-1.6v-6.7h-2.236v-1.486h6.071Z" transform="translate(-13537.717 -2463.411)"></path>
      <path id="Path_1379" data-name="Path 1379" d="M364.081,466.422h-3.006l-.6,1.854h-1.658l2.825-8.19h1.892l2.825,8.19h-1.688Zm-.473-1.457-1.033-3.206-1.028,3.206Z" transform="translate(-13538.093 -2463.411)"></path>
      <path id="Path_1380" data-name="Path 1380" d="M369.562,465.053h-.4v3.223h-1.6v-8.19h3.047c1.827,0,2.861.947,2.861,2.527a2.333,2.333,0,0,1-2.189,2.393l2.254,3.27h-1.88Zm-.4-1.363h1.431c.777,0,1.243-.351,1.243-1.077s-.479-1.059-1.243-1.059h-1.431Z" transform="translate(-13538.462 -2463.411)"></path>
      <path id="Path_1381" data-name="Path 1381" d="M381.522,461.795l-1.377.754a1.93,1.93,0,0,0-1.752-1.053c-1.226,0-2.107,1-2.107,2.68.006,1.736.928,2.679,2.113,2.679a1.973,1.973,0,0,0,1.763-1.047l1.32.837a3.4,3.4,0,0,1-3.083,1.761c-2.241,0-3.771-1.668-3.771-4.23s1.529-4.23,3.771-4.23a3.367,3.367,0,0,1,3.123,1.849" transform="translate(-13538.761 -2463.406)"></path>
      <path id="Path_1382" data-name="Path 1382" d="M389.437,460.086v8.19h-1.594v-3.393h-3.292v3.393h-1.6v-8.19h1.6V463.4h3.292v-3.317Z" transform="translate(-13539.113 -2463.411)"></path>
      <rect id="Rectangle_3908" data-name="Rectangle 3908" width="1.6" height="8.19" transform="translate(-13148.188 -2003.325)"></rect>
      <path id="Path_1383" data-name="Path 1383" d="M399.919,466.819v1.457H394.5v-8.19H399.9v1.456H396.1v1.872H399.7v1.457H396.1v1.948Z" transform="translate(-13539.602 -2463.411)"></path>
      <path id="Path_1384" data-name="Path 1384" d="M403.157,461.542v1.937h3.5v1.456h-3.5v3.341h-1.6v-8.19H406.9v1.456Z" transform="translate(-13539.899 -2463.411)"></path>
    </g>
  </g>
</svg>