<svg width="24" height="24" viewBox="0 0 24 24" fill="none" xmlns="http://www.w3.org/2000/svg">
<path fill-rule="evenodd" clip-rule="evenodd" d="M17.5019 2.13509C17.8102 2.31401 18 2.64353 18 3V7C19.1848 7 20.2502 7.51635 20.9812 8.33309C21.614 9.0401 22 9.97617 22 11C22 12.0238 21.614 12.9599 20.9812 13.6669C20.2502 14.4836 19.1848 15 18 15V19C18 19.3565 17.8102 19.686 17.5019 19.8649C17.1936 20.0438 16.8134 20.0451 16.5039 19.8682L10 16.1518V21C10 21.5523 9.55228 22 9 22H5C4.44772 22 4 21.5523 4 21V16C2.89543 16 2 15.1046 2 14V8C2 6.89543 2.89543 6 4 6H9.73444L16.5039 2.13176C16.8134 1.9549 17.1936 1.95617 17.5019 2.13509ZM10 14C10.174 14 10.345 14.0454 10.4961 14.1318L16 17.2768V4.72318L10.4961 7.86824C10.345 7.95458 10.174 8 10 8H4V14H10ZM6 16V20H8V16H6ZM18 13V9C18.5922 9 19.1233 9.25615 19.491 9.66691C19.8083 10.0214 20 10.4871 20 11C20 11.5129 19.8083 11.9786 19.491 12.3331C19.1233 12.7438 18.5922 13 18 13Z" fill="#0D0D0D"/>
</svg>
