<svg xmlns="http://www.w3.org/2000/svg" width="170" height="40"><path fill="#000F1E" d="M66 0C54.748 0 46 8.972 46 20s8.748 20 20 20c10.252 0 19-8.972 19-20S76.252 0 66 0zm0 34c-7.944 0-14-6.28-14-14S58.056 6 66 6c6.944 0 13 6.28 13 14s-6.056 14-13 14zm85-34c10.252 0 19 8.972 19 20s-8.748 20-19 20c-11.252 0-20-8.972-20-20s8.748-20 20-20zm0 34c-7.944 0-14-6.28-14-14s6.056-14 14-14c6.944 0 13 6.28 13 14s-6.056 14-13 14zM16 1h6v25h-6V1zm15 0h6v37h-6V1zM0 1h6v37H0V1zm95 37V1h28v37h-6V7h-16v31h-6z" fill-rule="evenodd"/></svg>