<svg width="24" height="24" viewBox="0 0 24 24" fill="none" xmlns="http://www.w3.org/2000/svg">
<path d="M5 7.76621C5 6.21162 6.69594 5.2514 8.02899 6.05123L15.0853 10.285C16.38 11.0618 16.38 12.9382 15.0853 13.715L8.02899 17.9488C6.69595 18.7486 5 17.7884 5 16.2338V7.76621ZM14.0563 12L7 7.76621V16.2338L14.0563 12Z" fill="#0D0D0D"/>
<path d="M18 6.00002C18.5523 6.00002 19 6.44774 19 7.00002V17C19 17.5523 18.5523 18 18 18C17.4477 18 17 17.5523 17 17V7.00002C17 6.44774 17.4477 6.00002 18 6.00002Z" fill="#0D0D0D"/>
</svg>
