<svg width="24" height="24" fill="none" xmlns="http://www.w3.org/2000/svg"><path d="M6 10.6V4a1 1 0 010-2h12a1 1 0 110 2v6.6c.932 1.02 1.432 2.034 1.699 2.834.146.438.22.81.26 1.08a4.43 4.43 0 01.04.43v.034l.001.013v.008s-.005-.131 0 .001a1 1 0 01-1 1h-6v5a1 1 0 11-2 0v-5H5a1 1 0 01-1-1v-.022a2.013 2.013 0 01.006-.134c.006-.082.016-.193.035-.33.04-.27.114-.642.26-1.08.267-.8.767-1.814 1.699-2.835zM16 4H8v7a1 1 0 01-.293.707c-.847.847-1.271 1.678-1.486 2.293H17.78c-.215-.615-.64-1.446-1.486-2.293A1 1 0 0116 11V4z" fill="#0D0D0D"/></svg>