<svg width="24" height="24" viewBox="0 0 24 24" fill="none" xmlns="http://www.w3.org/2000/svg">
<path d="M12.7929 2.29289C13.1834 1.90237 13.8166 1.90237 14.2071 2.29289L17.2071 5.29289C17.5976 5.68342 17.5976 6.31658 17.2071 6.70711L14.2071 9.70711C13.8166 10.0976 13.1834 10.0976 12.7929 9.70711C12.4024 9.31658 12.4024 8.68342 12.7929 8.29289L14.0858 7H12.5C8.95228 7 6 9.95228 6 13.5C6 17.0477 8.95228 20 12.5 20C16.0477 20 19 17.0477 19 13.5C19 12.9477 19.4477 12.5 20 12.5C20.5523 12.5 21 12.9477 21 13.5C21 18.1523 17.1523 22 12.5 22C7.84772 22 4 18.1523 4 13.5C4 8.84772 7.84772 5 12.5 5H14.0858L12.7929 3.70711C12.4024 3.31658 12.4024 2.68342 12.7929 2.29289Z" fill="#0D0D0D"/>
</svg>
