<svg width="24" height="24" fill="none" xmlns="http://www.w3.org/2000/svg"><path d="M20.924 5.617a.997.997 0 00-.217-.324l-3-3a1 1 0 10-1.414 1.414L17.586 5H8a5 5 0 00-5 5v2a1 1 0 102 0v-2a3 3 0 013-3h9.586l-1.293 1.293a1 1 0 001.414 1.414l3-3A.997.997 0 0021 6M20.924 5.617a.996.996 0 01.076.38zM3.076 17.617a.997.997 0 00.217 1.09l3 3a1 1 0 001.414-1.414L6.414 19H16a5 5 0 005-5v-2a1 1 0 10-2 0v2a3 3 0 01-3 3H6.414l1.293-1.293a1 1 0 10-1.414-1.414l-3 3M3.076 17.617a.997.997 0 01.215-.322z" fill="#0D0D0D"/></svg>