<svg width="24" height="24" viewBox="0 0 24 24" fill="none" xmlns="http://www.w3.org/2000/svg">
<path fill-rule="evenodd" clip-rule="evenodd" d="M4.15291 4L6.01064 15.1464C6.02538 15.2469 6.05505 15.3425 6.09733 15.4309C6.15592 15.5538 6.23834 15.6615 6.33774 15.7493C6.45342 15.8516 6.59297 15.9276 6.74698 15.9677C6.83358 15.9904 6.92416 16.0017 7.01669 16H18C18.4304 16 18.8126 15.7246 18.9487 15.3162L21.9487 6.31623C22.0503 6.01128 21.9992 5.67606 21.8112 5.41529C21.6233 5.15452 21.3214 5 21 5H6.34716L5.98881 2.84987C5.97616 2.76586 5.95306 2.68527 5.92087 2.60947C5.85636 2.45701 5.75593 2.32588 5.63168 2.22473C5.45299 2.07926 5.22503 1.99578 4.98379 2H3C2.44772 2 2 2.44772 2 3C2 3.55228 2.44772 4 3 4H4.15291ZM7.84716 14L6.68049 7H19.6126L17.2792 14H7.84716Z" fill="#0D0D0D"/>
<path d="M10 20C10 21.1046 9.10457 22 8 22C6.89543 22 6 21.1046 6 20C6 18.8954 6.89543 18 8 18C9.10457 18 10 18.8954 10 20Z" fill="#0D0D0D"/>
<path d="M19 20C19 21.1046 18.1046 22 17 22C15.8954 22 15 21.1046 15 20C15 18.8954 15.8954 18 17 18C18.1046 18 19 18.8954 19 20Z" fill="#0D0D0D"/>
</svg>
