<svg width="24" height="24" viewBox="0 0 24 24" fill="none" xmlns="http://www.w3.org/2000/svg">
<path d="M12 5C12.5523 5 13 5.44772 13 6V7C13 7.55228 12.5523 8 12 8C11.4477 8 11 7.55228 11 7V6C11 5.44772 11.4477 5 12 5ZM19.0711 7.92893C19.4616 8.31945 19.4616 8.95261 19.0711 9.34314L18.364 10.0502C17.9735 10.4408 17.3403 10.4408 16.9498 10.0502C16.5593 9.65972 16.5593 9.02656 16.9498 8.63603L17.6569 7.92893C18.0474 7.5384 18.6806 7.5384 19.0711 7.92893ZM4.92893 7.92893C5.31945 7.5384 5.95262 7.5384 6.34314 7.92893L7.05025 8.63603C7.44077 9.02656 7.44077 9.65972 7.05025 10.0502C6.65972 10.4408 6.02656 10.4408 5.63603 10.0502L4.92893 9.34314C4.5384 8.95262 4.5384 8.31945 4.92893 7.92893ZM2 15C2 14.4477 2.44772 14 3 14H4C4.55228 14 5 14.4477 5 15C5 15.5523 4.55228 16 4 16H3C2.44772 16 2 15.5523 2 15ZM19 15C19 14.4477 19.4477 14 20 14H21C21.5523 14 22 14.4477 22 15C22 15.5523 21.5523 16 21 16H20C19.4477 16 19 15.5523 19 15Z" fill="#0D0D0D"/>
<path d="M2 18C2 17.4477 2.44772 17 3 17C3 17 20.4477 17 21 17C21.5523 17 22 17.4477 22 18C22 18.5523 21.5523 19 21 19C20.4477 19 3 19 3 19C2.44772 19 2 18.5523 2 18Z" fill="#0D0D0D"/>
<path d="M8 15C8 12.7909 9.79086 11 12 11C14.2091 11 16 12.79 16 15C16 16.3333 18 16.3333 18 15C18 11.69 15.3137 9 12 9C8.68629 9 6 11.6863 6 15C6 16.333 8 16.333 8 15Z" fill="#0D0D0D"/>
</svg>
