<svg width="24" height="24" viewBox="0 0 24 24" fill="none" xmlns="http://www.w3.org/2000/svg"><path d="M12 2a1 1 0 0 1 1 1v1a1 1 0 1 1-2 0V3a1 1 0 0 1 1-1zm7.071 2.929a1 1 0 0 1 0 1.414l-.707.707a1 1 0 1 1-1.414-1.414l.707-.707a1 1 0 0 1 1.414 0zm-14.142 0a1 1 0 0 1 1.414 0l.707.707A1 1 0 0 1 5.636 7.05l-.707-.707a1 1 0 0 1 0-1.414zM12 8a4 4 0 1 0 0 8 4 4 0 0 0 0-8zm-6 4a6 6 0 1 1 12 0 6 6 0 0 1-12 0zm-4 0a1 1 0 0 1 1-1h1a1 1 0 1 1 0 2H3a1 1 0 0 1-1-1zm17 0a1 1 0 0 1 1-1h1a1 1 0 1 1 0 2h-1a1 1 0 0 1-1-1zM5.636 16.95a1 1 0 0 1 1.414 1.414l-.707.707a1 1 0 0 1-1.414-1.414l.707-.707zm11.314 1.414a1 1 0 0 1 1.414-1.414l.707.707a1 1 0 0 1-1.414 1.414l-.707-.707zM12 19a1 1 0 0 1 1 1v1a1 1 0 1 1-2 0v-1a1 1 0 0 1 1-1z" fill="#0D0D0D"/></svg>