<svg width="24" height="24" fill="none" xmlns="http://www.w3.org/2000/svg"><path d="M13 5a1 1 0 10-2 0v1a1 1 0 102 0V5zM9.028 19H3a1 1 0 110-2h3.803a6 6 0 1110.394 0H21a1 1 0 110 2H9.028zM12 10a4 4 0 00-2.646 7h5.292A4 4 0 0012 10zM19.071 8.343l-.707.707a1 1 0 11-1.414-1.414l.707-.707a1 1 0 111.414 1.414z" fill="#0D0D0D"/><path d="M4 15a1 1 0 100-2H3a1 1 0 100 2h1zM22 14a1 1 0 01-1 1h-1a1 1 0 110-2h1a1 1 0 011 1zM5.636 9.05A1 1 0 007.05 7.636l-.707-.707A1 1 0 104.93 8.343l.707.707z" fill="#0D0D0D"/></svg>