<svg width="24" height="24" viewBox="0 0 24 24" fill="none" xmlns="http://www.w3.org/2000/svg">
<path d="M13 5C13 4.44772 12.5523 4 12 4C11.4477 4 11 4.44772 11 5V6C11 6.55228 11.4477 7 12 7C12.5523 7 13 6.55228 13 6V5Z" fill="#0D0D0D"/>
<path d="M9.02842 19C9.00899 19.0006 8.98952 19.0006 8.97006 19H3C2.44772 19 2 18.5523 2 18C2 17.4477 2.44772 17 3 17H6.80293C6.29257 16.1177 6 15.093 6 14C6 10.6863 8.68629 8 12 8C15.3137 8 18 10.6863 18 14C18 15.093 17.7074 16.1177 17.1971 17H21C21.5523 17 22 17.4477 22 18C22 18.5523 21.5523 19 21 19H15.0299C15.0105 19.0006 14.991 19.0006 14.9716 19H9.02842ZM12 10C9.79086 10 8 11.7909 8 14C8 15.194 8.5223 16.2659 9.35412 17H14.6459C15.4777 16.2659 16 15.194 16 14C16 11.7909 14.2091 10 12 10Z" fill="#0D0D0D"/>
<path d="M19.0711 8.34315L18.364 9.05026C17.9735 9.44078 17.3403 9.44079 16.9498 9.05026C16.5593 8.65974 16.5593 8.02657 16.9498 7.63605L17.6569 6.92894C18.0474 6.53842 18.6806 6.53842 19.0711 6.92894C19.4616 7.31946 19.4616 7.95263 19.0711 8.34315Z" fill="#0D0D0D"/>
<path d="M4 15C4.55228 15 5 14.5523 5 14C5 13.4477 4.55228 13 4 13H3C2.44772 13 2 13.4477 2 14C2 14.5523 2.44772 15 3 15H4Z" fill="#0D0D0D"/>
<path d="M22 14C22 14.5523 21.5523 15 21 15H20C19.4477 15 19 14.5523 19 14C19 13.4477 19.4477 13 20 13H21C21.5523 13 22 13.4477 22 14Z" fill="#0D0D0D"/>
<path d="M5.63603 9.05025C6.02656 9.44077 6.65972 9.44077 7.05025 9.05025C7.44077 8.65972 7.44077 8.02656 7.05025 7.63603L6.34314 6.92893C5.95262 6.5384 5.31945 6.5384 4.92893 6.92893C4.5384 7.31945 4.5384 7.95262 4.92893 8.34314L5.63603 9.05025Z" fill="#0D0D0D"/>
</svg>
