<svg width="24" height="24" viewBox="0 0 24 24" fill="none" xmlns="http://www.w3.org/2000/svg">
<path fill-rule="evenodd" clip-rule="evenodd" d="M3 4C3 3.44772 3.44772 3 4 3H11C11.2652 3 11.5196 3.10536 11.7071 3.29289L20.7071 12.2929C21.0976 12.6834 21.0976 13.3166 20.7071 13.7071L13.7071 20.7071C13.3166 21.0976 12.6834 21.0976 12.2929 20.7071L3.29289 11.7071C3.10536 11.5196 3 11.2652 3 11V4ZM5 5V10.5858L13 18.5858L18.5858 13L10.5858 5H5Z" fill="#282828"/>
<path d="M10 8.5C10 9.32843 9.32843 10 8.5 10C7.67157 10 7 9.32843 7 8.5C7 7.67157 7.67157 7 8.5 7C9.32843 7 10 7.67157 10 8.5Z" fill="#282828"/>
</svg>
