<svg width="24" height="24" viewBox="0 0 24 24" fill="none" xmlns="http://www.w3.org/2000/svg">
<path fill-rule="evenodd" clip-rule="evenodd" d="M12.2071 2.29289C12.5976 2.68342 12.5976 3.31658 12.2071 3.70711L10.9142 5H12.5C17.1523 5 21 8.84772 21 13.5C21 18.1523 17.1523 22 12.5 22C7.84772 22 4 18.1523 4 13.5C4 12.9477 4.44772 12.5 5 12.5C5.55228 12.5 6 12.9477 6 13.5C6 17.0477 8.95228 20 12.5 20C16.0477 20 19 17.0477 19 13.5C19 9.95228 16.0477 7 12.5 7H10.9142L12.2071 8.29289C12.5976 8.68342 12.5976 9.31658 12.2071 9.70711C11.8166 10.0976 11.1834 10.0976 10.7929 9.70711L7.79289 6.70711C7.40237 6.31658 7.40237 5.68342 7.79289 5.29289L10.7929 2.29289C11.1834 1.90237 11.8166 1.90237 12.2071 2.29289Z" fill="#282828"/>
</svg>
